<svg width="20" height="20" viewBox="0 0 20 20" fill="none" xmlns="http://www.w3.org/2000/svg">
<path d="M4.76594 3.48226L7.10938 4.30933V7.61722C7.10938 7.94081 7.37172 8.20315 7.69531 8.20315H15.5078C15.8314 8.20315 16.0938 7.94081 16.0938 7.61722V4.30933L17.6562 3.75784V6.05472C17.6562 6.37831 17.9186 6.64065 18.2422 6.64065C18.5658 6.64065 18.8281 6.37831 18.8281 6.05472V2.92972C18.8281 2.68132 18.6714 2.45987 18.4372 2.37718L11.7966 0.0334277C11.6704 -0.0111426 11.5327 -0.0111426 11.4066 0.0334277L4.76594 2.37718C4.53168 2.45987 4.375 2.68132 4.375 2.92972C4.375 3.17812 4.53168 3.39956 4.76594 3.48226ZM14.9219 7.03128H8.28125V4.72292L11.4066 5.82597C11.4696 5.84823 11.5356 5.85936 11.6016 5.85936C11.6675 5.85936 11.7335 5.84823 11.7966 5.82597L14.9219 4.72292V7.03128ZM11.6016 1.20733L16.4817 2.92972L11.6016 4.6521L6.72145 2.92972L11.6016 1.20733Z" fill="#979797"/>
<path d="M18.7848 10.7258C18.0466 10.4758 17.2638 10.7144 16.7904 11.3335L14.6082 14.187C14.6086 14.1715 14.6094 14.1561 14.6094 14.1405C14.6094 13.0635 13.7332 12.1874 12.6562 12.1874H8.78C7.54418 11.1359 5.79758 10.9488 4.375 11.6853V11.6014C4.375 11.2778 4.11266 11.0155 3.78906 11.0155H0.585938C0.262344 11.0155 0 11.2778 0 11.6014V19.4139C0 19.7375 0.262344 19.9999 0.585938 19.9999H3.78906C4.11266 19.9999 4.375 19.7375 4.375 19.4139V18.828H13.9791C15.3812 18.828 16.671 18.1238 17.4292 16.9443L19.7159 13.3873C19.9018 13.0982 20 12.7637 20 12.42C20 11.6407 19.523 10.9756 18.7848 10.7258ZM3.20312 18.828H1.17188V12.1874H3.20312V18.828ZM18.7302 12.7536L16.4435 16.3107C15.9019 17.1531 14.9806 17.6561 13.9791 17.6561H4.375V13.0748L4.57098 12.9349C5.67016 12.1497 7.17477 12.2593 8.14855 13.1957C8.2577 13.3006 8.40324 13.3593 8.55465 13.3593H12.6562C13.087 13.3593 13.4375 13.7097 13.4375 14.1405C13.4375 14.5713 13.087 14.9218 12.6562 14.9218H8.55469H8.47656C8.15297 14.9218 7.89062 15.1841 7.89062 15.5077C7.89062 15.8313 8.15297 16.0936 8.47656 16.0936H8.55469H12.6562H13.1777C14.0843 16.0936 14.9543 15.6637 15.505 14.9436L17.7213 12.0454C17.9706 11.7193 18.3107 11.8025 18.4091 11.8358C18.5074 11.8691 18.8281 12.0096 18.8281 12.4201C18.8281 12.5385 18.7943 12.6539 18.7302 12.7536Z" fill="#979797"/>
</svg>
