<svg width="190" height="48" viewBox="0 0 190 48" fill="none" xmlns="http://www.w3.org/2000/svg">
<rect width="190" height="48" rx="15" fill="#0083C9"/>
<path d="M161.438 27.4654H160.399L160.031 27.1103C161.32 25.6112 162.095 23.665 162.095 21.5477C162.095 16.8268 158.269 13 153.548 13C148.827 13 145 16.8268 145 21.5477C145 26.2687 148.827 30.0955 153.548 30.0955C155.665 30.0955 157.611 29.3196 159.11 28.0309L159.465 28.3991V29.438L166.041 36L168 34.0406L161.438 27.4654V27.4654ZM153.548 27.4654C150.273 27.4654 147.63 24.8222 147.63 21.5477C147.63 18.2733 150.273 15.6301 153.548 15.6301C156.822 15.6301 159.465 18.2733 159.465 21.5477C159.465 24.8222 156.822 27.4654 153.548 27.4654Z" fill="white"/>
<path d="M24.1562 29V17.625H28.0547C29.3411 17.625 30.3203 17.8828 30.9922 18.3984C31.6641 18.9141 32 19.6823 32 20.7031C32 21.224 31.8594 21.6927 31.5781 22.1094C31.2969 22.526 30.8854 22.849 30.3438 23.0781C30.9583 23.2448 31.4323 23.5599 31.7656 24.0234C32.1042 24.4818 32.2734 25.0339 32.2734 25.6797C32.2734 26.7474 31.9297 27.5677 31.2422 28.1406C30.5599 28.7135 29.5807 29 28.3047 29H24.1562ZM26.1328 23.8672V27.4219H28.3281C28.9479 27.4219 29.4323 27.2682 29.7812 26.9609C30.1302 26.6536 30.3047 26.2266 30.3047 25.6797C30.3047 24.4974 29.7005 23.8932 28.4922 23.8672H26.1328ZM26.1328 22.4141H28.0703C28.6849 22.4141 29.1641 22.276 29.5078 22C29.8568 21.7188 30.0312 21.3229 30.0312 20.8125C30.0312 20.25 29.8698 19.8438 29.5469 19.5938C29.2292 19.3438 28.7318 19.2188 28.0547 19.2188H26.1328V22.4141ZM39.3375 28.1719C38.7802 28.8281 37.9885 29.1562 36.9625 29.1562C36.0458 29.1562 35.3505 28.888 34.8766 28.3516C34.4078 27.8151 34.1734 27.0391 34.1734 26.0234V20.5469H36.0719V26C36.0719 27.0729 36.5172 27.6094 37.4078 27.6094C38.3297 27.6094 38.9521 27.2786 39.275 26.6172V20.5469H41.1734V29H39.3844L39.3375 28.1719ZM47.9953 26.7031C47.9953 26.3646 47.8547 26.1068 47.5734 25.9297C47.2974 25.7526 46.8365 25.5964 46.1906 25.4609C45.5448 25.3255 45.0057 25.1536 44.5734 24.9453C43.6255 24.487 43.1516 23.8229 43.1516 22.9531C43.1516 22.224 43.4589 21.6146 44.0734 21.125C44.688 20.6354 45.4693 20.3906 46.4172 20.3906C47.4276 20.3906 48.2427 20.6406 48.8625 21.1406C49.4875 21.6406 49.8 22.2891 49.8 23.0859H47.9016C47.9016 22.7214 47.7661 22.4193 47.4953 22.1797C47.2245 21.9349 46.8651 21.8125 46.4172 21.8125C46.0005 21.8125 45.6594 21.9089 45.3937 22.1016C45.1333 22.2943 45.0031 22.5521 45.0031 22.875C45.0031 23.1667 45.1255 23.3932 45.3703 23.5547C45.6151 23.7161 46.1099 23.8802 46.8547 24.0469C47.5995 24.2083 48.1828 24.4036 48.6047 24.6328C49.0318 24.8568 49.3469 25.1276 49.55 25.4453C49.7583 25.763 49.8625 26.1484 49.8625 26.6016C49.8625 27.362 49.5474 27.9792 48.9172 28.4531C48.287 28.9219 47.4615 29.1562 46.4406 29.1562C45.7479 29.1562 45.1307 29.0312 44.5891 28.7812C44.0474 28.5312 43.6255 28.1875 43.3234 27.75C43.0214 27.3125 42.8703 26.8411 42.8703 26.3359H44.7141C44.7401 26.7839 44.9094 27.1302 45.2219 27.375C45.5344 27.6146 45.9484 27.7344 46.4641 27.7344C46.9641 27.7344 47.3443 27.6406 47.6047 27.4531C47.8651 27.2604 47.9953 27.0104 47.9953 26.7031ZM55.1453 27.6406C55.6193 27.6406 56.0125 27.5026 56.325 27.2266C56.6375 26.9505 56.8042 26.6094 56.825 26.2031H58.6141C58.5932 26.7292 58.4292 27.2214 58.1219 27.6797C57.8146 28.1328 57.3979 28.4922 56.8719 28.7578C56.3458 29.0234 55.7781 29.1562 55.1688 29.1562C53.9865 29.1562 53.049 28.7734 52.3563 28.0078C51.6635 27.2422 51.3172 26.1849 51.3172 24.8359V24.6406C51.3172 23.3542 51.6609 22.3255 52.3484 21.5547C53.0359 20.7786 53.9734 20.3906 55.1609 20.3906C56.1661 20.3906 56.9839 20.6849 57.6141 21.2734C58.2495 21.8568 58.5828 22.625 58.6141 23.5781H56.825C56.8042 23.0938 56.6375 22.6953 56.325 22.3828C56.0177 22.0703 55.6245 21.9141 55.1453 21.9141C54.5307 21.9141 54.0568 22.138 53.7234 22.5859C53.3901 23.0286 53.2208 23.7031 53.2156 24.6094V24.9141C53.2156 25.8307 53.3797 26.5156 53.7078 26.9688C54.0411 27.4167 54.5203 27.6406 55.1453 27.6406ZM65.2484 29C65.1651 28.8385 65.0922 28.5755 65.0297 28.2109C64.4255 28.8411 63.6859 29.1562 62.8109 29.1562C61.962 29.1562 61.2693 28.9141 60.7328 28.4297C60.1964 27.9453 59.9281 27.3464 59.9281 26.6328C59.9281 25.7318 60.2615 25.0417 60.9281 24.5625C61.6 24.0781 62.5583 23.8359 63.8031 23.8359H64.9672V23.2812C64.9672 22.8438 64.8448 22.4948 64.6 22.2344C64.3552 21.9688 63.9828 21.8359 63.4828 21.8359C63.0505 21.8359 62.6964 21.9453 62.4203 22.1641C62.1443 22.3776 62.0062 22.651 62.0062 22.9844H60.1078C60.1078 22.5208 60.2615 22.0885 60.5687 21.6875C60.876 21.2812 61.2927 20.9635 61.8187 20.7344C62.35 20.5052 62.9411 20.3906 63.5922 20.3906C64.5818 20.3906 65.3708 20.6406 65.9594 21.1406C66.5479 21.6354 66.85 22.3333 66.8656 23.2344V27.0469C66.8656 27.8073 66.9724 28.4141 67.1859 28.8672V29H65.2484ZM63.1625 27.6328C63.5375 27.6328 63.8891 27.5417 64.2172 27.3594C64.5505 27.1771 64.8005 26.9323 64.9672 26.625V25.0312H63.9437C63.2406 25.0312 62.712 25.1536 62.3578 25.3984C62.0036 25.6432 61.8266 25.9896 61.8266 26.4375C61.8266 26.8021 61.9464 27.0938 62.1859 27.3125C62.4307 27.526 62.7562 27.6328 63.1625 27.6328ZM73.4297 22.2812C73.1797 22.2396 72.9219 22.2188 72.6562 22.2188C71.7865 22.2188 71.2005 22.5521 70.8984 23.2188V29H69V20.5469H70.8125L70.8594 21.4922C71.3177 20.7578 71.9531 20.3906 72.7656 20.3906C73.0365 20.3906 73.2604 20.4271 73.4375 20.5L73.4297 22.2812ZM82.6359 29.1562C81.4328 29.1562 80.4562 28.7786 79.7062 28.0234C78.9615 27.263 78.5891 26.2526 78.5891 24.9922V24.7578C78.5891 23.9141 78.7505 23.1615 79.0734 22.5C79.4016 21.8333 79.8599 21.3151 80.4484 20.9453C81.037 20.5755 81.6932 20.3906 82.4172 20.3906C83.5682 20.3906 84.4562 20.7578 85.0812 21.4922C85.7115 22.2266 86.0266 23.2656 86.0266 24.6094V25.375H80.5031C80.5604 26.0729 80.7922 26.625 81.1984 27.0312C81.6099 27.4375 82.1255 27.6406 82.7453 27.6406C83.6151 27.6406 84.3234 27.2891 84.8703 26.5859L85.8937 27.5625C85.5552 28.0677 85.1021 28.4609 84.5344 28.7422C83.9719 29.0182 83.3391 29.1562 82.6359 29.1562ZM82.4094 21.9141C81.8885 21.9141 81.4667 22.0964 81.1437 22.4609C80.826 22.8255 80.6229 23.3333 80.5344 23.9844H84.1516V23.8438C84.1099 23.2083 83.9406 22.7292 83.6437 22.4062C83.3469 22.0781 82.9354 21.9141 82.4094 21.9141ZM90.5281 26.5938L92.3172 20.5469H94.2781L91.3484 29H89.7L86.7469 20.5469H88.7156L90.5281 26.5938ZM99.2328 29.1562C98.0297 29.1562 97.0531 28.7786 96.3031 28.0234C95.5583 27.263 95.1859 26.2526 95.1859 24.9922V24.7578C95.1859 23.9141 95.3474 23.1615 95.6703 22.5C95.9984 21.8333 96.4568 21.3151 97.0453 20.9453C97.6339 20.5755 98.2901 20.3906 99.0141 20.3906C100.165 20.3906 101.053 20.7578 101.678 21.4922C102.308 22.2266 102.623 23.2656 102.623 24.6094V25.375H97.1C97.1573 26.0729 97.3891 26.625 97.7953 27.0312C98.2068 27.4375 98.7224 27.6406 99.3422 27.6406C100.212 27.6406 100.92 27.2891 101.467 26.5859L102.491 27.5625C102.152 28.0677 101.699 28.4609 101.131 28.7422C100.569 29.0182 99.9359 29.1562 99.2328 29.1562ZM99.0062 21.9141C98.4854 21.9141 98.0635 22.0964 97.7406 22.4609C97.4229 22.8255 97.2198 23.3333 97.1312 23.9844H100.748V23.8438C100.707 23.2083 100.537 22.7292 100.241 22.4062C99.9437 22.0781 99.5323 21.9141 99.0062 21.9141ZM106.016 20.5469L106.07 21.5234C106.695 20.7682 107.516 20.3906 108.531 20.3906C110.292 20.3906 111.188 21.3984 111.219 23.4141V29H109.32V23.5234C109.32 22.987 109.203 22.5911 108.969 22.3359C108.74 22.0755 108.362 21.9453 107.836 21.9453C107.07 21.9453 106.5 22.2917 106.125 22.9844V29H104.227V20.5469H106.016ZM115.689 18.4922V20.5469H117.181V21.9531H115.689V26.6719C115.689 26.9948 115.752 27.2292 115.877 27.375C116.007 27.5156 116.236 27.5859 116.564 27.5859C116.783 27.5859 117.004 27.5599 117.228 27.5078V28.9766C116.796 29.0964 116.379 29.1562 115.978 29.1562C114.52 29.1562 113.791 28.3516 113.791 26.7422V21.9531H112.4V20.5469H113.791V18.4922H115.689ZM118.198 24.6953C118.198 23.8672 118.363 23.1224 118.691 22.4609C119.019 21.7943 119.48 21.2839 120.073 20.9297C120.667 20.5703 121.349 20.3906 122.12 20.3906C123.261 20.3906 124.185 20.7578 124.894 21.4922C125.607 22.2266 125.993 23.2005 126.05 24.4141L126.058 24.8594C126.058 25.6927 125.896 26.4375 125.573 27.0938C125.256 27.75 124.797 28.2578 124.198 28.6172C123.605 28.9766 122.917 29.1562 122.136 29.1562C120.943 29.1562 119.988 28.7604 119.269 27.9688C118.555 27.1719 118.198 26.112 118.198 24.7891V24.6953ZM120.097 24.8594C120.097 25.7292 120.277 26.4115 120.636 26.9062C120.995 27.3958 121.495 27.6406 122.136 27.6406C122.777 27.6406 123.274 27.3906 123.628 26.8906C123.988 26.3906 124.167 25.6589 124.167 24.6953C124.167 23.8411 123.982 23.1641 123.613 22.6641C123.248 22.1641 122.751 21.9141 122.12 21.9141C121.501 21.9141 121.008 22.1615 120.644 22.6562C120.279 23.1458 120.097 23.8802 120.097 24.8594Z" fill="white"/>
</svg>
