<svg width="48" height="48" viewBox="0 0 48 48" fill="none" xmlns="http://www.w3.org/2000/svg">
<rect width="48" height="48" rx="15" fill="#308E45"/>
<path d="M33.5455 18.5L28.0909 24H32.1818C32.1818 28.5512 28.5136 32.25 24 32.25C22.6227 32.25 21.3136 31.9062 20.1818 31.2875L18.1909 33.295C19.8682 34.3675 21.8591 35 24 35C30.0273 35 34.9091 30.0775 34.9091 24H39L33.5455 18.5ZM15.8182 24C15.8182 19.4488 19.4864 15.75 24 15.75C25.3773 15.75 26.6864 16.0937 27.8182 16.7125L29.8091 14.705C28.1318 13.6325 26.1409 13 24 13C17.9727 13 13.0909 17.9225 13.0909 24H9L14.4545 29.5L19.9091 24H15.8182Z" fill="white"/>
</svg>
