<svg width="20" height="24" viewBox="0 0 20 24" fill="none" xmlns="http://www.w3.org/2000/svg">
<path d="M0.139784 9.57999L1.57113 7.72924L1.25157 5.41246C1.21163 5.11288 1.37806 4.81995 1.66433 4.70678L3.82798 3.828L4.70676 1.66435C4.81993 1.37808 5.11286 1.2183 5.41244 1.25159L7.72922 1.57115L9.57997 0.139805C9.81964 -0.0466018 10.1525 -0.0466018 10.3922 0.139805L12.2429 1.57115L14.5597 1.25159C14.8593 1.21165 15.1522 1.37808 15.2654 1.66435L16.1442 3.828L18.3078 4.70678C18.5941 4.81995 18.7605 5.11288 18.7206 5.41246L18.401 7.72924L19.8324 9.57999C20.0188 9.81966 20.0188 10.1525 19.8324 10.3922L18.401 12.243L18.7206 14.5597C18.7605 14.8593 18.5941 15.1522 18.3078 15.2654L16.4171 16.031L19.1666 19.5661C19.3064 19.7458 19.3464 19.9855 19.2665 20.2052C19.1866 20.4182 19.0002 20.578 18.7738 20.6246L15.6382 21.2504L13.7874 23.1078C13.661 23.2343 13.4879 23.3009 13.3148 23.3009C13.2549 23.3009 13.2016 23.2942 13.1417 23.2809C12.9153 23.221 12.7356 23.0412 12.6757 22.8082L11.6105 18.8937L10.3922 19.8324C10.2723 19.9256 10.1325 19.9722 9.98607 19.9722C9.83961 19.9722 9.6998 19.9256 9.57997 19.8324L8.36167 18.8937L7.29648 22.8082C7.23657 23.0412 7.05682 23.221 6.83047 23.2809C6.77055 23.2942 6.71729 23.3009 6.65738 23.3009C6.48428 23.3009 6.31119 23.2343 6.1847 23.1078L4.33394 21.2504L1.19831 20.6246C0.971958 20.578 0.785551 20.4182 0.705664 20.2052C0.625774 19.9855 0.665718 19.7458 0.805523 19.5661L3.55503 16.031L1.66433 15.2654C1.37806 15.1522 1.21163 14.8593 1.25157 14.5597L1.57113 12.243L0.139784 10.3922C-0.0466232 10.1525 -0.0466232 9.81966 0.139784 9.57999ZM13.6543 21.3503L14.8393 20.1653C14.9325 20.0721 15.0524 20.0121 15.1788 19.9855L17.4557 19.5328L15.6915 17.2626L15.2654 18.3078C15.1522 18.5941 14.8593 18.7605 14.5597 18.7206L12.8687 18.4876L13.6543 21.3503ZM2.51647 19.5328L4.7933 19.9855C4.9198 20.0121 5.03963 20.0721 5.13283 20.1653L6.31785 21.3503L7.10342 18.4876L5.41244 18.7206C5.11286 18.7539 4.82659 18.5941 4.70676 18.3078L4.28068 17.2626L2.51647 19.5328ZM2.79609 11.6504C2.9026 11.7902 2.94921 11.97 2.92923 12.1431L2.64297 14.2269L4.58692 15.0191C4.75336 15.0857 4.88651 15.2188 4.95308 15.3852L5.74531 17.3292L7.82908 17.0429C8.00217 17.023 8.18192 17.0696 8.32172 17.1761L9.98607 18.4676L11.6504 17.1761C11.7636 17.0895 11.9101 17.0363 12.0565 17.0363C12.0832 17.0363 12.1164 17.0429 12.1431 17.0429L14.2268 17.3292L15.0191 15.3852C15.0856 15.2188 15.2188 15.0857 15.3852 15.0191L17.3292 14.2269L17.0429 12.1431C17.0229 11.97 17.0695 11.7902 17.1761 11.6504L18.4676 9.98609L17.1761 8.32175C17.0695 8.18194 17.0229 8.00219 17.0429 7.8291L17.3292 5.74533L15.3852 4.9531C15.2188 4.88653 15.0856 4.75338 15.0191 4.58695L14.2268 2.64299L12.1431 2.92925C11.97 2.94923 11.7902 2.90262 11.6504 2.79611L9.98607 1.50457L8.32172 2.79611C8.18192 2.90262 8.00217 2.94923 7.82908 2.92925L5.74531 2.64299L4.95308 4.58695C4.88651 4.75338 4.75336 4.88653 4.58692 4.9531L2.64297 5.74533L2.92923 7.8291C2.94921 8.00219 2.9026 8.18194 2.79609 8.32175L1.50455 9.98609L2.79609 11.6504Z" fill="white"/>
<path d="M9.98609 15.312C12.9227 15.312 15.312 12.9227 15.312 9.98607C15.312 7.0495 12.9227 4.66016 9.98609 4.66016C7.04952 4.66016 4.66018 7.0495 4.66018 9.98607C4.66018 12.9227 7.04952 15.312 9.98609 15.312ZM9.98609 5.99164C12.189 5.99164 13.9805 7.78314 13.9805 9.98607C13.9805 12.189 12.189 13.9805 9.98609 13.9805C7.78316 13.9805 5.99166 12.189 5.99166 9.98607C5.99166 7.78314 7.78316 5.99164 9.98609 5.99164Z" fill="white"/>
</svg>
