<svg width="28" height="19" viewBox="0 0 28 19" fill="none" xmlns="http://www.w3.org/2000/svg">
<path d="M9.8 9.5C12.502 9.5 14.7 7.36929 14.7 4.75C14.7 2.13071 12.502 0 9.8 0C7.098 0 4.9 2.13071 4.9 4.75C4.9 7.36929 7.098 9.5 9.8 9.5ZM9.8 2.71429C10.962 2.71429 11.9 3.62357 11.9 4.75C11.9 5.87643 10.962 6.78571 9.8 6.78571C8.638 6.78571 7.7 5.87643 7.7 4.75C7.7 3.62357 8.638 2.71429 9.8 2.71429ZM9.87 16.2857H3.878C5.264 15.6071 7.658 14.9286 9.8 14.9286C9.954 14.9286 10.122 14.9421 10.276 14.9421C10.752 13.9514 11.578 13.1371 12.572 12.4857C11.55 12.3093 10.584 12.2143 9.8 12.2143C6.524 12.2143 0 13.8021 0 16.9643V19H9.8V16.9643C9.8 16.7336 9.828 16.5029 9.87 16.2857ZM20.3 12.8929C17.724 12.8929 12.6 14.2636 12.6 16.9643V19H28V16.9643C28 14.2636 22.876 12.8929 20.3 12.8929ZM21.994 10.4229C23.058 9.83929 23.8 8.74 23.8 7.46429C23.8 5.59143 22.232 4.07143 20.3 4.07143C18.368 4.07143 16.8 5.59143 16.8 7.46429C16.8 8.74 17.542 9.83929 18.606 10.4229C19.11 10.6943 19.684 10.8571 20.3 10.8571C20.916 10.8571 21.49 10.6943 21.994 10.4229Z" fill="white"/>
</svg>
