<svg width="19" height="15" viewBox="0 0 19 15" fill="none" xmlns="http://www.w3.org/2000/svg">
<path d="M0 12.1858C0 12.7622 0.467241 13.2294 1.04361 13.2294H17.7414C18.3178 13.2294 18.785 12.7622 18.785 12.1858V12.1858C18.785 11.6094 18.3178 11.1422 17.7414 11.1422H1.04361C0.467241 11.1422 0 11.6094 0 12.1858V12.1858ZM0 6.96773C0 7.5441 0.467241 8.01134 1.04361 8.01134H17.7414C18.3178 8.01134 18.785 7.5441 18.785 6.96773V6.96773C18.785 6.39136 18.3178 5.92412 17.7414 5.92412H1.04361C0.467241 5.92412 0 6.39136 0 6.96773V6.96773ZM1.04361 0.706055C0.467241 0.706055 0 1.1733 0 1.74967V1.74967C0 2.32604 0.467241 2.79328 1.04361 2.79328H17.7414C18.3178 2.79328 18.785 2.32604 18.785 1.74967V1.74967C18.785 1.1733 18.3178 0.706055 17.7414 0.706055H1.04361Z" fill="#0083C9"/>
</svg>
