<svg width="21" height="24" viewBox="0 0 21 24" fill="none" xmlns="http://www.w3.org/2000/svg">
<path d="M5.95816 7.35154H1.30366C1.05564 7.35154 0.819348 7.2448 0.655239 7.05876C0.490942 6.87238 0.414535 6.62418 0.44566 6.37761C0.544332 5.59494 0.905785 4.85727 1.46332 4.30063L4.7185 1.04544C5.31653 0.446615 6.11102 0.0793028 6.95538 0.0115684C7.46547 -0.0286972 7.89096 0.373865 7.89096 0.873506V5.41893C7.89082 6.48449 7.02386 7.35154 5.95816 7.35154ZM2.12843 5.87132H5.95816C6.20768 5.87132 6.41069 5.6684 6.41069 5.41888V1.65266C6.17172 1.75635 5.95235 1.90476 5.7656 2.09179L2.50961 5.34777C2.35558 5.50147 2.22714 5.6789 2.12843 5.87132Z" fill="#559643"/>
<path d="M17.8177 24H3.51985C1.80905 24 0.417236 22.6081 0.417236 20.8974V6.82425C0.417236 6.73861 0.420565 6.64894 0.427221 6.55758C0.491533 5.70422 0.859315 4.90327 1.46292 4.30059L4.71811 1.04536C5.36114 0.401438 6.2168 0.0307031 7.12702 0.00182812C7.16747 0.000796875 7.20492 0 7.24149 0H17.8177C19.5285 0 20.9204 1.39186 20.9204 3.10256V14.2205C20.9204 14.6292 20.589 14.9606 20.1803 14.9606C19.7715 14.9606 19.4401 14.6292 19.4401 14.2205V3.10256C19.4401 2.208 18.7123 1.48022 17.8178 1.48022H7.24149C7.21786 1.48022 7.19367 1.48088 7.17005 1.48148C6.64177 1.49827 6.14152 1.71497 5.7653 2.0917L2.50931 5.34769C2.15606 5.70042 1.94095 6.16884 1.90346 6.66703C1.89952 6.72075 1.89745 6.77428 1.89745 6.82425V20.8974C1.89745 21.792 2.62519 22.5198 3.5198 22.5198H17.8177C18.7123 22.5198 19.4401 21.792 19.4401 20.8974V18.661C19.4401 18.2523 19.7715 17.9209 20.1802 17.9209C20.5889 17.9209 20.9203 18.2523 20.9203 18.661V20.8974C20.9204 22.6082 19.5285 24 17.8177 24Z" fill="#559643"/>
<path d="M7.57733 11.0322C7.57733 11.5667 7.14406 11.9999 6.60959 11.9999C6.07512 11.9999 5.64185 11.5667 5.64185 11.0322C5.64185 10.4977 6.07512 10.0645 6.60959 10.0645C7.14406 10.0645 7.57733 10.4977 7.57733 11.0322Z" fill="#559643"/>
<path d="M7.57733 14.1291C7.57733 14.6636 7.14406 15.0969 6.60959 15.0969C6.07512 15.0969 5.64185 14.6636 5.64185 14.1291C5.64185 13.5946 6.07512 13.1614 6.60959 13.1614C7.14406 13.1614 7.57733 13.5946 7.57733 14.1291Z" fill="#559643"/>
<path d="M7.57733 17.2258C7.57733 17.7603 7.14406 18.1935 6.60959 18.1935C6.07512 18.1935 5.64185 17.7603 5.64185 17.2258C5.64185 16.6913 6.07512 16.2581 6.60959 16.2581C7.14406 16.2581 7.57733 16.6913 7.57733 17.2258Z" fill="#559643"/>
<path d="M8.73865 10.5337C8.73865 10.2745 8.94474 10.0645 9.19898 10.0645H16.7944C17.0487 10.0645 17.2548 10.2745 17.2548 10.5337V11.1436C17.2548 11.4028 17.0487 11.6128 16.7944 11.6128H9.19898C8.94475 11.6128 8.73865 11.4028 8.73865 11.1436V10.5337Z" fill="#559643"/>
<path d="M8.73865 14.0175C8.73865 13.7584 8.94474 13.5483 9.19898 13.5483H16.7944C17.0487 13.5483 17.2548 13.7584 17.2548 14.0175V14.6275C17.2548 14.8867 17.0487 15.0967 16.7944 15.0967H9.19898C8.94475 15.0967 8.73865 14.8867 8.73865 14.6275V14.0175Z" fill="#559643"/>
<path d="M8.73865 17.1142C8.73865 16.8551 8.94474 16.645 9.19898 16.645H16.7944C17.0487 16.645 17.2548 16.8551 17.2548 17.1142V17.7242C17.2548 17.9833 17.0487 18.1934 16.7944 18.1934H9.19898C8.94475 18.1934 8.73865 17.9833 8.73865 17.7242V17.1142Z" fill="#559643"/>
</svg>
