<svg width="190" height="48" viewBox="0 0 190 48" fill="none" xmlns="http://www.w3.org/2000/svg">
<rect width="190" height="48" rx="15" fill="#0083C9"/>
<path d="M128.438 27.4654H127.399L127.031 27.1103C128.32 25.6112 129.095 23.665 129.095 21.5477C129.095 16.8268 125.269 13 120.548 13C115.827 13 112 16.8268 112 21.5477C112 26.2687 115.827 30.0955 120.548 30.0955C122.665 30.0955 124.611 29.3196 126.11 28.0309L126.465 28.3991V29.438L133.041 36L135 34.0406L128.438 27.4654V27.4654ZM120.548 27.4654C117.273 27.4654 114.63 24.8222 114.63 21.5477C114.63 18.2733 117.273 15.6301 120.548 15.6301C123.822 15.6301 126.465 18.2733 126.465 21.5477C126.465 24.8222 123.822 27.4654 120.548 27.4654Z" fill="white"/>
<path d="M53.1562 29V17.625H57.0547C58.3411 17.625 59.3203 17.8828 59.9922 18.3984C60.6641 18.9141 61 19.6823 61 20.7031C61 21.224 60.8594 21.6927 60.5781 22.1094C60.2969 22.526 59.8854 22.849 59.3438 23.0781C59.9583 23.2448 60.4323 23.5599 60.7656 24.0234C61.1042 24.4818 61.2734 25.0339 61.2734 25.6797C61.2734 26.7474 60.9297 27.5677 60.2422 28.1406C59.5599 28.7135 58.5807 29 57.3047 29H53.1562ZM55.1328 23.8672V27.4219H57.3281C57.9479 27.4219 58.4323 27.2682 58.7812 26.9609C59.1302 26.6536 59.3047 26.2266 59.3047 25.6797C59.3047 24.4974 58.7005 23.8932 57.4922 23.8672H55.1328ZM55.1328 22.4141H57.0703C57.6849 22.4141 58.1641 22.276 58.5078 22C58.8568 21.7188 59.0312 21.3229 59.0312 20.8125C59.0312 20.25 58.8698 19.8438 58.5469 19.5938C58.2292 19.3438 57.7318 19.2188 57.0547 19.2188H55.1328V22.4141ZM68.3375 28.1719C67.7802 28.8281 66.9885 29.1562 65.9625 29.1562C65.0458 29.1562 64.3505 28.888 63.8766 28.3516C63.4078 27.8151 63.1734 27.0391 63.1734 26.0234V20.5469H65.0719V26C65.0719 27.0729 65.5172 27.6094 66.4078 27.6094C67.3297 27.6094 67.9521 27.2786 68.275 26.6172V20.5469H70.1734V29H68.3844L68.3375 28.1719ZM76.9953 26.7031C76.9953 26.3646 76.8547 26.1068 76.5734 25.9297C76.2974 25.7526 75.8365 25.5964 75.1906 25.4609C74.5448 25.3255 74.0057 25.1536 73.5734 24.9453C72.6255 24.487 72.1516 23.8229 72.1516 22.9531C72.1516 22.224 72.4589 21.6146 73.0734 21.125C73.688 20.6354 74.4693 20.3906 75.4172 20.3906C76.4276 20.3906 77.2427 20.6406 77.8625 21.1406C78.4875 21.6406 78.8 22.2891 78.8 23.0859H76.9016C76.9016 22.7214 76.7661 22.4193 76.4953 22.1797C76.2245 21.9349 75.8651 21.8125 75.4172 21.8125C75.0005 21.8125 74.6594 21.9089 74.3937 22.1016C74.1333 22.2943 74.0031 22.5521 74.0031 22.875C74.0031 23.1667 74.1255 23.3932 74.3703 23.5547C74.6151 23.7161 75.1099 23.8802 75.8547 24.0469C76.5995 24.2083 77.1828 24.4036 77.6047 24.6328C78.0318 24.8568 78.3469 25.1276 78.55 25.4453C78.7583 25.763 78.8625 26.1484 78.8625 26.6016C78.8625 27.362 78.5474 27.9792 77.9172 28.4531C77.287 28.9219 76.4615 29.1562 75.4406 29.1562C74.7479 29.1562 74.1307 29.0312 73.5891 28.7812C73.0474 28.5312 72.6255 28.1875 72.3234 27.75C72.0214 27.3125 71.8703 26.8411 71.8703 26.3359H73.7141C73.7401 26.7839 73.9094 27.1302 74.2219 27.375C74.5344 27.6146 74.9484 27.7344 75.4641 27.7344C75.9641 27.7344 76.3443 27.6406 76.6047 27.4531C76.8651 27.2604 76.9953 27.0104 76.9953 26.7031ZM84.1453 27.6406C84.6193 27.6406 85.0125 27.5026 85.325 27.2266C85.6375 26.9505 85.8042 26.6094 85.825 26.2031H87.6141C87.5932 26.7292 87.4292 27.2214 87.1219 27.6797C86.8146 28.1328 86.3979 28.4922 85.8719 28.7578C85.3458 29.0234 84.7781 29.1562 84.1688 29.1562C82.9865 29.1562 82.049 28.7734 81.3563 28.0078C80.6635 27.2422 80.3172 26.1849 80.3172 24.8359V24.6406C80.3172 23.3542 80.6609 22.3255 81.3484 21.5547C82.0359 20.7786 82.9734 20.3906 84.1609 20.3906C85.1661 20.3906 85.9839 20.6849 86.6141 21.2734C87.2495 21.8568 87.5828 22.625 87.6141 23.5781H85.825C85.8042 23.0938 85.6375 22.6953 85.325 22.3828C85.0177 22.0703 84.6245 21.9141 84.1453 21.9141C83.5307 21.9141 83.0568 22.138 82.7234 22.5859C82.3901 23.0286 82.2208 23.7031 82.2156 24.6094V24.9141C82.2156 25.8307 82.3797 26.5156 82.7078 26.9688C83.0411 27.4167 83.5203 27.6406 84.1453 27.6406ZM94.2484 29C94.1651 28.8385 94.0922 28.5755 94.0297 28.2109C93.4255 28.8411 92.6859 29.1562 91.8109 29.1562C90.962 29.1562 90.2693 28.9141 89.7328 28.4297C89.1964 27.9453 88.9281 27.3464 88.9281 26.6328C88.9281 25.7318 89.2615 25.0417 89.9281 24.5625C90.6 24.0781 91.5583 23.8359 92.8031 23.8359H93.9672V23.2812C93.9672 22.8438 93.8448 22.4948 93.6 22.2344C93.3552 21.9688 92.9828 21.8359 92.4828 21.8359C92.0505 21.8359 91.6964 21.9453 91.4203 22.1641C91.1443 22.3776 91.0062 22.651 91.0062 22.9844H89.1078C89.1078 22.5208 89.2615 22.0885 89.5687 21.6875C89.876 21.2812 90.2927 20.9635 90.8187 20.7344C91.35 20.5052 91.9411 20.3906 92.5922 20.3906C93.5818 20.3906 94.3708 20.6406 94.9594 21.1406C95.5479 21.6354 95.85 22.3333 95.8656 23.2344V27.0469C95.8656 27.8073 95.9724 28.4141 96.1859 28.8672V29H94.2484ZM92.1625 27.6328C92.5375 27.6328 92.8891 27.5417 93.2172 27.3594C93.5505 27.1771 93.8005 26.9323 93.9672 26.625V25.0312H92.9437C92.2406 25.0312 91.712 25.1536 91.3578 25.3984C91.0036 25.6432 90.8266 25.9896 90.8266 26.4375C90.8266 26.8021 90.9464 27.0938 91.1859 27.3125C91.4307 27.526 91.7562 27.6328 92.1625 27.6328ZM102.43 22.2812C102.18 22.2396 101.922 22.2188 101.656 22.2188C100.786 22.2188 100.201 22.5521 99.8984 23.2188V29H98V20.5469H99.8125L99.8594 21.4922C100.318 20.7578 100.953 20.3906 101.766 20.3906C102.036 20.3906 102.26 20.4271 102.438 20.5L102.43 22.2812Z" fill="white"/>
</svg>
