<svg width="25" height="29" viewBox="0 0 25 29" fill="none" xmlns="http://www.w3.org/2000/svg">
<path d="M0.168173 12.1596L1.89017 9.93306L1.50572 7.14583C1.45767 6.78541 1.6579 6.433 2.0023 6.29684L4.60532 5.23962L5.66254 2.6366C5.7987 2.2922 6.15111 2.09998 6.51153 2.14002L9.29876 2.52447L11.5253 0.802472C11.8137 0.578212 12.2141 0.578212 12.5025 0.802472L14.7291 2.52447L17.5163 2.14002C17.8767 2.09197 18.2291 2.2922 18.3653 2.6366L19.4225 5.23962L22.0255 6.29684C22.3699 6.433 22.5701 6.78541 22.5221 7.14583L22.1376 9.93306L23.8596 12.1596C24.0839 12.448 24.0839 12.8484 23.8596 13.1368L22.1376 15.3633L22.5221 18.1506C22.5701 18.511 22.3699 18.8634 22.0255 18.9996L19.7509 19.9206L23.0587 24.1736C23.2269 24.3898 23.275 24.6781 23.1788 24.9425C23.0827 25.1988 22.8585 25.391 22.5862 25.447L18.8138 26.1999L16.5872 28.4345C16.435 28.5867 16.2268 28.6668 16.0185 28.6668C15.9465 28.6668 15.8824 28.6588 15.8103 28.6427C15.538 28.5707 15.3217 28.3544 15.2497 28.0741L13.9682 23.3646L12.5025 24.4939C12.3583 24.6061 12.1901 24.6621 12.0139 24.6621C11.8377 24.6621 11.6695 24.6061 11.5253 24.4939L10.0596 23.3646L8.77815 28.0741C8.70607 28.3544 8.48982 28.5707 8.2175 28.6427C8.14542 28.6588 8.08135 28.6668 8.00926 28.6668C7.80102 28.6668 7.59278 28.5867 7.4406 28.4345L5.21402 26.1999L1.44165 25.447C1.16933 25.391 0.945074 25.1988 0.848963 24.9425C0.752851 24.6781 0.800905 24.3898 0.969101 24.1736L4.27694 19.9206L2.0023 18.9996C1.6579 18.8634 1.45767 18.511 1.50572 18.1506L1.89017 15.3633L0.168173 13.1368C-0.0560875 12.8484 -0.0560875 12.448 0.168173 12.1596ZM16.427 26.3201L17.8527 24.8944C17.9648 24.7823 18.109 24.7102 18.2611 24.6781L21.0003 24.1335L18.8779 21.4024L18.3653 22.6598C18.2291 23.0042 17.8767 23.2044 17.5163 23.1564L15.4819 22.8761L16.427 26.3201ZM3.02749 24.1335L5.76666 24.6781C5.91884 24.7102 6.06301 24.7823 6.17514 24.8944L7.60079 26.3201L8.54588 22.8761L6.51153 23.1564C6.15111 23.1964 5.80671 23.0042 5.66254 22.6598L5.14995 21.4024L3.02749 24.1335ZM3.36388 14.6505C3.49203 14.8187 3.54809 15.035 3.52407 15.2432L3.17966 17.7501L5.51838 18.7032C5.71861 18.7833 5.87879 18.9435 5.95889 19.1437L6.91199 21.4824L9.4189 21.138C9.62714 21.114 9.84339 21.1701 10.0116 21.2982L12.0139 22.852L14.0162 21.2982C14.1524 21.1941 14.3286 21.13 14.5048 21.13C14.5368 21.13 14.5769 21.138 14.6089 21.138L17.1158 21.4824L18.0689 19.1437C18.149 18.9435 18.3092 18.7833 18.5094 18.7032L20.8481 17.7501L20.5037 15.2432C20.4797 15.035 20.5358 14.8187 20.6639 14.6505L22.2177 12.6482L20.6639 10.6459C20.5358 10.4777 20.4797 10.2614 20.5037 10.0532L20.8481 7.54629L18.5094 6.59318C18.3092 6.51309 18.149 6.35291 18.0689 6.15267L17.1158 3.81396L14.6089 4.15836C14.4007 4.18239 14.1844 4.12633 14.0162 3.99818L12.0139 2.44438L10.0116 3.99818C9.84339 4.12633 9.62714 4.18239 9.4189 4.15836L6.91199 3.81396L5.95889 6.15267C5.87879 6.35291 5.71861 6.51309 5.51838 6.59318L3.17966 7.54629L3.52407 10.0532C3.54809 10.2614 3.49203 10.4777 3.36388 10.6459L1.81008 12.6482L3.36388 14.6505Z" fill="#69A25A"/>
<path d="M12.014 19.0556C15.5469 19.0556 18.4214 16.181 18.4214 12.6482C18.4214 9.11526 15.5469 6.24072 12.014 6.24072C8.48106 6.24072 5.60653 9.11526 5.60653 12.6482C5.60653 16.181 8.48106 19.0556 12.014 19.0556ZM12.014 7.84258C14.6642 7.84258 16.8195 9.99788 16.8195 12.6482C16.8195 15.2984 14.6642 17.4537 12.014 17.4537C9.36369 17.4537 7.20839 15.2984 7.20839 12.6482C7.20839 9.99788 9.36369 7.84258 12.014 7.84258Z" fill="#69A25A"/>
</svg>
