<svg width="28" height="28" viewBox="0 0 28 28" fill="none" xmlns="http://www.w3.org/2000/svg">
<path d="M15.4386 10.8905L11.1579 7.66834V20.3317L15.4386 17.1095L19.5789 14L15.4386 10.8905ZM15.4386 10.8905L11.1579 7.66834V20.3317L15.4386 17.1095L19.5789 14L15.4386 10.8905ZM15.4386 10.8905L11.1579 7.66834V20.3317L15.4386 17.1095L19.5789 14L15.4386 10.8905ZM12.5614 2.84221V0C9.74035 0.281407 7.17193 1.40704 5.09474 3.10955L7.08772 5.12161C8.64561 3.91156 10.5123 3.09548 12.5614 2.84221ZM5.10877 7.10553L3.10175 5.10754C1.40351 7.18995 0.280702 9.76482 0 12.593H2.83509C3.08772 10.5387 3.90175 8.66734 5.10877 7.10553ZM2.83509 15.407H0C0.280702 18.2352 1.40351 20.81 3.10175 22.8925L5.10877 20.8804C3.90175 19.3327 3.08772 17.4613 2.83509 15.407ZM5.09474 24.8905C7.17193 26.593 9.75438 27.7186 12.5614 28V25.1578C10.5123 24.9045 8.64561 24.0884 7.08772 22.8784L5.09474 24.8905ZM28 14C28 21.2603 22.4982 27.2543 15.4386 28V25.1578C20.9403 24.4261 25.193 19.6985 25.193 14C25.193 8.30151 20.9403 3.57387 15.4386 2.84221V0C22.4982 0.745729 28 6.7397 28 14Z" fill="white"/>
</svg>
