<svg width="26" height="26" viewBox="0 0 26 26" fill="none" xmlns="http://www.w3.org/2000/svg">
<path d="M6.5 0C5.60625 0 4.875 0.73125 4.875 1.625V24.375C4.875 25.2688 5.60625 26 6.5 26H22.75C23.6438 26 24.375 25.2688 24.375 24.375V6.5L17.875 0H6.5Z" fill="#E2E5E7"/>
<path d="M19.5 6.5H24.375L17.875 0V4.875C17.875 5.76875 18.6062 6.5 19.5 6.5Z" fill="#B0B7BD"/>
<path d="M24.375 11.375L19.5 6.5H24.375V11.375Z" fill="#CAD1D8"/>
<path d="M21.125 21.125C21.125 21.5719 20.7594 21.9375 20.3125 21.9375H2.4375C1.99062 21.9375 1.625 21.5719 1.625 21.125V13C1.625 12.5531 1.99062 12.1875 2.4375 12.1875H20.3125C20.7594 12.1875 21.125 12.5531 21.125 13V21.125Z" fill="#F15642"/>
<path d="M5.16675 15.3943C5.16675 15.1798 5.33575 14.9458 5.60794 14.9458H7.10862C7.95362 14.9458 8.71412 15.5113 8.71412 16.5952C8.71412 17.6222 7.95362 18.1942 7.10862 18.1942H6.02394V19.0522C6.02394 19.3382 5.84194 19.4999 5.60794 19.4999C5.39344 19.4999 5.16675 19.3382 5.16675 19.0522V15.3943V15.3943ZM6.02394 15.764V17.3825H7.10862C7.54412 17.3825 7.88862 16.9982 7.88862 16.5952C7.88862 16.141 7.54412 15.764 7.10862 15.764H6.02394Z" fill="white"/>
<path d="M9.98634 19.4997C9.77184 19.4997 9.53784 19.3827 9.53784 19.0975V15.4072C9.53784 15.174 9.77184 15.0042 9.98634 15.0042H11.474C14.4429 15.0042 14.3779 19.4997 11.5325 19.4997H9.98634V19.4997ZM10.3958 15.7972V18.7075H11.474C13.2282 18.7075 13.3062 15.7972 11.474 15.7972H10.3958V15.7972Z" fill="white"/>
<path d="M15.4309 15.8492V16.8819H17.0876C17.3216 16.8819 17.5556 17.1159 17.5556 17.3426C17.5556 17.5571 17.3216 17.7326 17.0876 17.7326H15.4309V19.0968C15.4309 19.3243 15.2692 19.499 15.0417 19.499C14.7557 19.499 14.5811 19.3243 14.5811 19.0968V15.4064C14.5811 15.1732 14.7566 15.0034 15.0417 15.0034H17.3224C17.6084 15.0034 17.7774 15.1732 17.7774 15.4064C17.7774 15.6144 17.6084 15.8484 17.3224 15.8484H15.4309V15.8492Z" fill="white"/>
<path d="M20.3125 21.9375H4.875V22.75H20.3125C20.7594 22.75 21.125 22.3844 21.125 21.9375V21.125C21.125 21.5719 20.7594 21.9375 20.3125 21.9375Z" fill="#CAD1D8"/>
</svg>
