<svg width="22" height="22" viewBox="0 0 22 22" fill="none" xmlns="http://www.w3.org/2000/svg">
<path d="M21.2667 6.6C21.2667 6.57655 21.2631 6.55417 21.2622 6.53071C21.7327 5.9193 21.9918 5.17147 22 4.4C22 1.9737 19.368 0 16.1333 0C12.8987 0 10.2667 1.9737 10.2667 4.4C10.2685 4.52264 10.2771 4.6451 10.2923 4.76667H2.56667C1.55457 4.76792 0.734587 5.58791 0.733333 6.6V18.3333H0V20.1667C0.00125326 21.1788 0.82124 21.9987 1.83333 22H20.1667C21.1788 21.9987 21.9987 21.1788 22 20.1667V18.3333H21.2667V6.6ZM16.1333 0.733333C18.9641 0.733333 21.2667 2.37814 21.2667 4.4C21.2667 6.42186 18.9641 8.06667 16.1333 8.06667H16.0234C15.9729 8.06685 15.923 8.07741 15.8766 8.09746L12.2071 9.70789L12.9891 7.65059C13.0521 7.48462 12.9875 7.29753 12.8355 7.20604C11.6692 6.50278 11 5.48013 11 4.4C11 2.37814 13.3026 0.733333 16.1333 0.733333ZM12.1979 7.66849L11.2109 10.2667C11.1681 10.3793 11.1833 10.5059 11.2519 10.605C11.3203 10.7042 11.4331 10.7635 11.5536 10.7635C11.6041 10.7633 11.654 10.7528 11.7004 10.7327L16.1004 8.8H16.1333C17.1415 8.80448 18.14 8.60181 19.0667 8.20452V16.8667H2.93333V6.96667H11.3625C11.6152 7.22967 11.8952 7.4651 12.1979 7.66849ZM1.46667 6.6C1.46667 5.99253 1.9592 5.5 2.56667 5.5H10.4581C10.5442 5.75602 10.658 6.00202 10.7977 6.23333H2.2V17.6H19.8V7.82944C20.0583 7.67332 20.3036 7.49661 20.5333 7.30075V18.3333H13.0824L11.9901 19.0667H10.0022L8.91369 18.3333H1.46667V6.6ZM21.2667 20.1667C21.2667 20.7741 20.7741 21.2667 20.1667 21.2667H1.83333C1.22586 21.2667 0.733333 20.7741 0.733333 20.1667V19.0667H8.69007L9.77826 19.8H12.2099L13.3042 19.0667H21.2667V20.1667Z" fill="#979797"/>
<path d="M7.70003 11.3666C8.71248 11.3666 9.53337 10.5457 9.53337 9.53328C9.53337 8.52083 8.71248 7.69995 7.70003 7.69995C6.68758 7.69995 5.8667 8.52083 5.8667 9.53328C5.86795 10.5454 6.68794 11.3654 7.70003 11.3666ZM7.70003 8.43328C8.3075 8.43328 8.80003 8.92581 8.80003 9.53328C8.80003 10.1408 8.3075 10.6333 7.70003 10.6333C7.09256 10.6333 6.60003 10.1408 6.60003 9.53328C6.60003 8.92581 7.09256 8.43328 7.70003 8.43328Z" fill="#A19F9F"/>
<path d="M10.9999 13.5667C10.9986 12.5546 10.1787 11.7347 9.16657 11.7334H6.23324C5.22114 11.7347 4.40116 12.5546 4.3999 13.5667V16.1334H10.9999V13.5667ZM10.2666 15.4001H5.13324V13.5667C5.13324 12.9593 5.62577 12.4667 6.23324 12.4667H9.16657C9.77404 12.4667 10.2666 12.9593 10.2666 13.5667V15.4001Z" fill="#A19F9F"/>
</svg>
