<svg width="13" height="9" viewBox="0 0 13 9" fill="none" xmlns="http://www.w3.org/2000/svg">
<path fill-rule="evenodd" clip-rule="evenodd" d="M6.41667 0C3.5 0 1.00917 1.81417 0 4.375C1.00917 6.93583 3.5 8.75 6.41667 8.75C9.33333 8.75 11.8242 6.93583 12.8333 4.375C11.8242 1.81417 9.33333 0 6.41667 0ZM6.41667 7.29167C4.80667 7.29167 3.5 5.985 3.5 4.375C3.5 2.765 4.80667 1.45833 6.41667 1.45833C8.02667 1.45833 9.33333 2.765 9.33333 4.375C9.33333 5.985 8.02667 7.29167 6.41667 7.29167ZM6.41667 2.625C5.44833 2.625 4.66667 3.40667 4.66667 4.375C4.66667 5.34333 5.44833 6.125 6.41667 6.125C7.385 6.125 8.16667 5.34333 8.16667 4.375C8.16667 3.40667 7.385 2.625 6.41667 2.625Z" fill="black" fill-opacity="0.6"/>
</svg>
