<svg width="22" height="27" viewBox="0 0 22 27" fill="none" xmlns="http://www.w3.org/2000/svg">
<path d="M13.2501 0H2.65001C1.19251 0 0 1.19251 0 2.65001V23.8501C0 25.3076 1.19251 26.5001 2.65001 26.5001H18.5501C20.0076 26.5001 21.2001 25.3076 21.2001 23.8501V7.95004L13.2501 0ZM18.5501 23.8501H2.65001V2.65001H13.2501V7.95004H18.5501V23.8501ZM10.6 19.8751C9.14254 19.8751 7.95004 18.6826 7.95004 17.2251V9.93755C7.95004 9.56654 8.24154 9.27504 8.61254 9.27504C8.98354 9.27504 9.27504 9.56654 9.27504 9.93755V17.2251H11.9251V9.93755C11.9251 8.10904 10.441 6.62503 8.61254 6.62503C6.78403 6.62503 5.30002 8.10904 5.30002 9.93755V17.2251C5.30002 20.1533 7.67179 22.5251 10.6 22.5251C13.5283 22.5251 15.9001 20.1533 15.9001 17.2251V11.9251H13.2501V17.2251C13.2501 18.6826 12.0576 19.8751 10.6 19.8751Z" fill="white"/>
</svg>
